<svg height="512pt" viewBox="-23 0 511 512" width="512pt" xmlns="http://www.w3.org/2000/svg"><path d="m220.675781 0v32.074219c-45.917969 6.597656-82.328125 43.011719-88.925781 88.925781h-31.074219v30h31.074219c6.597656 45.914062 43.007812 82.328125 88.925781 88.925781v31.074219h30v-31.074219c45.914063-6.597656 82.324219-43.011719 88.921875-88.925781h31.078125v-30h-31.078125c-6.597656-45.914062-43.007812-82.328125-88.921875-88.925781v-32.074219zm88.488281 121h-28.488281v29.988281h28.488281c-5.980468 29.347657-29.144531 52.523438-58.488281 58.503907v-28.492188h-30v28.492188c-29.347656-5.980469-52.511719-29.148438-58.492187-58.492188h28.492187v-30h-28.492187c5.980468-29.34375 29.144531-52.511719 58.492187-58.492188v28.492188h30v-28.492188c29.34375 5.980469 52.507813 29.148438 58.488281 58.492188zm0 0"/><path d="m.5 512h465.167969l-36.34375-204.925781-103.648438-69.101563-90 60-90.027343-60.019531-102.839844 69c-24.839844 119.351563-41.597656 201.597656-42.308594 205.046875zm64.664062-165.183594 134.4375 135.183594h-162.339843c10.390625-50.6875 21.40625-103.871094 27.902343-135.183594zm267.941407-67.835937 59.066406 39.378906-118.136719 118.792969zm-97.429688 175.144531-31.789062-85.121094 31.789062-31.789062 31.785157 31.789062zm43.320313-116.015625-19.777344-19.777344 36.171875-24.117187zm-86.644532 0-16.394531-43.894531 36.171875 24.117187zm4.960938 99.042969-117.945312-118.601563 58.898437-39.515625zm232.566406 44.847656h-158.132812l134.199218-134.945312zm0 0"/></svg>